<svg xmlns="http://www.w3.org/2000/svg" viewBox="0 0 682.56 166.01"><defs><style>.a{fill:#14cfff;}.b{fill:#1d88e5;}</style></defs><path class="a" d="M821,187H698.9a5,5,0,0,1,0-10H821a23.31,23.31,0,0,0,9.44-44.64,5,5,0,0,1-2.87-5.55,37.15,37.15,0,0,0-52.47-40.9A5,5,0,0,1,768,82a58,58,0,0,0-93.8-38.38,5,5,0,0,1-6.23-7.8A67.35,67.35,0,0,1,710.36,21,68.05,68.05,0,0,1,776.8,74.51,46.32,46.32,0,0,1,791,72.29a47.27,47.27,0,0,1,47.21,47.21,46.62,46.62,0,0,1-.33,5.53,33.31,33.31,0,0,1-17,62Z" transform="translate(-171.72 -20.99)"/><path class="a" d="M673.94,177h-32.3a27.1,27.1,0,0,1-27.07-26.79v-9.8a5,5,0,0,0-10,0v9.8A37.11,37.11,0,0,0,641.64,187h32.3a5,5,0,0,0,0-10Z" transform="translate(-171.72 -20.99)"/><path class="b" d="M561.41,122.48h-15V47.33h15Z" transform="translate(-171.72 -20.99)"/><rect class="b" x="440.44" y="57.94" width="44.42" height="15.03"/><path class="b" d="M656.57,48.88v15H603.78a7,7,0,0,0-5.13,2.16,7.06,7.06,0,0,0-2.21,5.19V108.9h-15V70.8A21,21,0,0,1,588,55.4a21,21,0,0,1,15.3-6.52Z" transform="translate(-171.72 -20.99)"/><rect class="b" x="424.83" y="88.02" width="60.02" height="15.02"/><path class="b" d="M279.81,63.93l37.85-.18a6.92,6.92,0,0,1,5,2.18,7,7,0,0,1,2.18,5.18v37.61h15V70.83a21.06,21.06,0,0,0-6.61-15.34A21.07,21.07,0,0,0,318,48.88H279.81Z" transform="translate(-171.72 -20.99)"/><path class="b" d="M324.86,108.72l-37.71.28a7.44,7.44,0,0,1-7.37-7.36V64h-15v38.12A22.61,22.61,0,0,0,286.85,124h38Z" transform="translate(-171.72 -20.99)"/><rect class="b" x="247.48" y="27.89" width="15.03" height="60.01"/><path class="b" d="M419.19,109H381.47a7.44,7.44,0,0,1-7.36-7.36V48.88h-15v53.21a20.93,20.93,0,0,0,6.61,15.4A21.16,21.16,0,0,0,381,124h38.17Z" transform="translate(-171.72 -20.99)"/><path class="b" d="M193.82,48.88a21.33,21.33,0,0,0-15.49,6.54,21,21,0,0,0-6.61,15.41v38.05h15V99.63h0V71.28A7,7,0,0,1,189,66.09a7.16,7.16,0,0,1,5.11-2.18h52.75v-15Z" transform="translate(-171.72 -20.99)"/><polygon class="b" points="44.1 88.01 15.05 88.01 15.05 103.04 33.06 103.04 44.1 103.04 75.15 103.04 75.15 88.01 44.1 88.01 44.1 88.01"/><rect class="b" x="280.5" y="42.98" width="15.03" height="60.06"/><path class="b" d="M520.83,87.36A21.16,21.16,0,0,0,527.37,72v-1.2a21.09,21.09,0,0,0-6.61-15.34,21.11,21.11,0,0,0-15.33-6.61H467.32v15H505a6.86,6.86,0,0,1,5.26,2.26,7.61,7.61,0,0,1,2.11,5.41A7.73,7.73,0,0,1,505,78.94H483.54V94h.06L505.28,124h19.38L501.71,94h3.72A20.94,20.94,0,0,0,520.83,87.36Z" transform="translate(-171.72 -20.99)"/><rect class="b" x="502.19" y="42.98" width="15.03" height="60.06"/><path class="b" d="M742.52,87.36A21.16,21.16,0,0,0,749.06,72v-1.2a21.06,21.06,0,0,0-6.61-15.34,21.07,21.07,0,0,0-15.33-6.61H689v15h37.66a6.89,6.89,0,0,1,5.26,2.26,7.64,7.64,0,0,1,2.1,5.41,7.71,7.71,0,0,1-7.36,7.36H705.23V94h.06L727,124h19.39L723.4,94h3.72A20.93,20.93,0,0,0,742.52,87.36Z" transform="translate(-171.72 -20.99)"/><path class="a" d="M690.32,166.39H684V134.94h6.29Z" transform="translate(-171.72 -20.99)"/><path class="a" d="M806.06,144.12a9.45,9.45,0,0,0-9.18-9.18H774.61v6.29h22.08a2.88,2.88,0,0,1,2.2.94,3.18,3.18,0,0,1,.88,2.26,3.24,3.24,0,0,1-3.08,3.09H782.14v6.29h14.55a2.87,2.87,0,0,1,2.17,1,3.17,3.17,0,0,1,.91,2.23,3,3,0,0,1-.91,2.14,2.92,2.92,0,0,1-2.17.95H774.61v6.29h22.27a8.78,8.78,0,0,0,6.45-2.77,8.87,8.87,0,0,0,2.73-6.42v-.5a8.87,8.87,0,0,0-2.39-6A9.49,9.49,0,0,0,806.06,144.12Z" transform="translate(-171.72 -20.99)"/><path class="a" d="M723.94,159.19A3,3,0,0,1,723,157v-3.15h-6.29v3.34a9.4,9.4,0,0,0,9.18,9.19h22.27V160.1H726.11A3,3,0,0,1,723.94,159.19Z" transform="translate(-171.72 -20.99)"/><path class="a" d="M745.42,137.7a8.8,8.8,0,0,0-6.41-2.76H716.74v6.29h22.08a2.91,2.91,0,0,1,2.17.94,3,3,0,0,1,.91,2.14v3.21H723.1v6.29h25.09v-9.69A8.81,8.81,0,0,0,745.42,137.7Z" transform="translate(-171.72 -20.99)"/></svg>