<?xml version="1.0" encoding="iso-8859-1"?>
<!-- Generator: Adobe Illustrator 19.0.0, SVG Export Plug-In . SVG Version: 6.00 Build 0)  -->
<svg version="1.1" id="Capa_1" xmlns="http://www.w3.org/2000/svg" xmlns:xlink="http://www.w3.org/1999/xlink" x="0px" y="0px"
	 viewBox="0 0 512 512" style="enable-background:new 0 0 512 512;" xml:space="preserve">
<g>
	<g>
		<g>
			<path d="M426.667,64c0-11.782-9.551-21.333-21.333-21.333h-64V0h-42.667v42.667h-64V0H192v42.667h-64V0H85.333v42.667h-64
				C9.551,42.667,0,52.218,0,64v42.667h426.667V64z"/>
			<path d="M340.952,240.957c13.965-4.19,28.469-6.309,43.048-6.291c14.453,0.013,28.826,2.133,42.667,6.293V128H0v277.333
				c0,11.782,9.551,21.333,21.333,21.333H240.96C217.29,347.773,262.058,264.628,340.952,240.957z M298.667,170.667h42.667v42.667
				h-42.667V170.667z M192,170.667h42.667v42.667H192V170.667z M128,384H85.333v-42.667H128V384z M128,298.667H85.333V256H128
				V298.667z M128,213.333H85.333v-42.667H128V213.333z M192,256h42.667v42.667H192V256z"/>
			<path d="M384,256c-70.692,0-128,57.308-128,128s57.308,128,128,128s128-57.307,128-128C511.918,313.342,454.658,256.082,384,256z
				 M399.083,399.083c-5.728,5.683-14.157,7.677-21.824,5.163l-64-21.333l13.504-40.533l51.477,17.067l54.677-54.677l30.165,30.165
				L399.083,399.083z"/>
		</g>
	</g>
</g>
<g>
</g>
<g>
</g>
<g>
</g>
<g>
</g>
<g>
</g>
<g>
</g>
<g>
</g>
<g>
</g>
<g>
</g>
<g>
</g>
<g>
</g>
<g>
</g>
<g>
</g>
<g>
</g>
<g>
</g>
</svg>
