<?xml version="1.0" encoding="iso-8859-1"?>
<!-- Generator: Adobe Illustrator 21.0.0, SVG Export Plug-In . SVG Version: 6.00 Build 0)  -->
<svg xmlns="http://www.w3.org/2000/svg" xmlns:xlink="http://www.w3.org/1999/xlink" version="1.1" id="Capa_1" x="0px" y="0px" viewBox="0 0 512 512" style="enable-background:new 0 0 512 512;" xml:space="preserve" width="512" height="512">
<g>
	<path d="M406,271c-35.328,0-65.231,9.139-84.053,23.536l-144.126-35.788c-4.47-13.995-16.144-26.171-32.465-34.731l-18.398,27.618   C117.568,264.262,104.106,271,90,271s-27.568-6.738-36.021-18.032l-19.325-28.956C13.705,234.998,0,251.851,0,271   c0,33.137,40.294,60,90,60c40.206,0,73.85-17.695,85.397-41.949l127.323,31.586c-0.95,3.371-1.719,6.79-1.719,10.364   c0,12.482,6.136,23.795,16.681,33.193l-63.593,36.339C237.642,394.506,217.843,391,196,391c-59.854,0-106,25.796-106,60   s46.146,61,106,61s105-26.796,105-61c0-12.482-6.136-23.795-16.681-33.193l63.593-36.339C364.358,387.494,384.157,391,406,391   c59.854,0,106-25.796,106-60S465.854,271,406,271z"/>
	<path d="M78.003,234.994C80.83,238.773,85.283,241,90,241s9.17-2.227,11.997-6.006l60.044-91.044   C173.789,128.291,180,109.644,180,90c0-49.629-40.371-90-90-90S0,40.371,0,90c0,19.629,6.211,38.291,17.959,53.95L78.003,234.994z    M90,45c24.814,0,45,20.186,45,45s-20.186,45-45,45s-45-20.186-45-45S65.186,45,90,45z"/>
</g>















</svg>
