<svg id="Capa_1" enable-background="new 0 0 512 512" height="512" viewBox="0 0 512 512" width="512" xmlns="http://www.w3.org/2000/svg"><g><path d="m314.233 176.883c-.514-3.084-1.979-5.93-4.189-8.141l-70.711-70.711c-5.858-5.858-15.355-5.858-21.213 0l-24.749 24.749-17.678-17.678c-5.858-5.858-15.355-5.858-21.213 0l-63.64 63.64c-4.867 4.867-5.797 12.422-2.256 18.324l15.188 25.312-83.642 83.643c-5.858 5.858-5.858 15.355 0 21.213l17.678 17.677-15.84 15.84c-14.166 14.166-21.968 33-21.968 53.034v93.215c0 8.284 6.716 15 15 15s15-6.716 15-15v-93.215c0-12.02 4.681-23.32 13.181-31.82l15.84-15.84 38.891 38.891c29.243 29.243 76.824 29.242 106.066 0l120.208-120.208c3.425-3.426 4.985-8.294 4.189-13.073zm-131.468 196.92c-17.545 17.545-46.094 17.546-63.64 0l-10.607-10.607 55.71-55.71v20.355c0 8.284 6.716 15 15 15s15-6.716 15-15v-32.299l44.531 22.265z"/><path d="m489.975 190.189c-10.18-17.548-20.211-32.103-20.633-32.714-2.801-4.055-7.414-6.475-12.342-6.475s-9.541 2.42-12.342 6.475c-.422.611-10.453 15.166-20.633 32.714-19.742 34.032-22.025 48.151-22.025 55.811 0 30.327 24.673 55 55 55s55-24.673 55-55c0-7.66-2.283-21.779-22.025-55.811z"/><path d="m449.93 74.995c4.006 0 7.773-1.561 10.606-4.394 2.833-2.834 4.394-6.601 4.393-10.606v-44.994c0-8.27-6.728-14.999-15-15l-25.502-.001c-44.744-.002-86.808 17.422-118.446 49.06l-36.597 36.597 53.033 53.033 36.6-36.6c17.47-17.47 40.698-27.091 65.403-27.092z"/></g></svg>