<?xml version="1.0" encoding="iso-8859-1"?>
<!-- Generator: Adobe Illustrator 19.0.0, SVG Export Plug-In . SVG Version: 6.00 Build 0)  -->
<svg version="1.1" id="Capa_1" xmlns="http://www.w3.org/2000/svg" xmlns:xlink="http://www.w3.org/1999/xlink" x="0px" y="0px"
	 viewBox="0 0 358 358" style="enable-background:new 0 0 358 358;" xml:space="preserve">
<g>
	<g>
		<g>
			<circle cx="79.34" cy="246.51" r="34.28"/>
			<path d="M279.974,195.021c1.896-5.161,2.867-10.616,2.867-16.115c-0.008-25.814-20.941-46.733-46.755-46.725
				c-5.488,0.002-10.933,0.97-16.086,2.861v87.723C244.223,231.665,271.074,219.244,279.974,195.021z"/>
			<path d="M137.367,90.317l-43.331,56.895c-1.073,1.399-2.575,2.407-4.276,2.87l-72.5,19.8C7.111,172.659,0.055,181.856,0,192.377
				v26.463c0.105,12.874,10.61,23.234,23.484,23.16h5.774c2.392-27.66,26.755-48.144,54.415-45.751
				c24.342,2.106,43.646,21.409,45.751,45.751H204V77h-39.763C153.7,77.034,143.775,81.953,137.367,90.317z"/>
			<path d="M336.891,165.079c-3.484-0.329-6.362-2.859-7.134-6.272c-2.468-11.405-7.038-22.25-13.477-31.981
				c-1.959-2.941-1.755-6.819,0.5-9.54l13.42-16.215l-16.323-16.53l-16.145,13.374c-2.685,2.229-6.505,2.46-9.439,0.571
				c-9.79-6.406-20.66-10.988-32.082-13.523c-3.397-0.718-5.937-3.557-6.273-7.013L247.916,57H220v61.287
				c33.481-8.886,67.827,11.051,76.713,44.533c8.886,33.481-11.051,67.827-44.533,76.713c-10.544,2.799-21.636,2.799-32.181,0V301
				h27.916l2.026-21.043c0.333-3.469,2.868-6.326,6.273-7.068c11.406-2.468,22.253-7.039,31.985-13.478
				c2.941-1.959,6.82-1.755,9.54,0.5l16.183,13.4l16.6-16.6l-13.4-16.182c-2.222-2.69-2.445-6.509-0.551-9.439
				c6.419-9.788,11.015-20.657,13.565-32.082c0.752-3.405,3.613-5.938,7.084-6.272L358,190.715v-23.61L336.891,165.079z"/>
		</g>
	</g>
</g>
<g>
</g>
<g>
</g>
<g>
</g>
<g>
</g>
<g>
</g>
<g>
</g>
<g>
</g>
<g>
</g>
<g>
</g>
<g>
</g>
<g>
</g>
<g>
</g>
<g>
</g>
<g>
</g>
<g>
</g>
</svg>
